<?xml version="1.0" encoding="UTF-8" standalone="no"?>
<!DOCTYPE svg PUBLIC "-//W3C//DTD SVG 1.1//EN" "http://www.w3.org/Graphics/SVG/1.1/DTD/svg11.dtd">
<svg width="100%" height="100%" viewBox="0 0 869 1189" version="1.1" xmlns="http://www.w3.org/2000/svg" xmlns:xlink="http://www.w3.org/1999/xlink" xml:space="preserve" xmlns:serif="http://www.serif.com/" style="fill-rule:evenodd;clip-rule:evenodd;stroke-linecap:round;stroke-linejoin:round;stroke-miterlimit:1.5;">
    <g transform="matrix(1,0,0,1,0,-5.13578)">
        <g id="Artboard2" transform="matrix(1.04209,0,0,1.38009,1287.79,-6150.42)">
            <rect x="-1235.78" y="4460.27" width="833.656" height="861.291" style="fill:none;"/>
            <g transform="matrix(2.8485,0,0,1.74558,1533.79,-3712.52)">
                <g transform="matrix(0.585527,0,0,0.721476,-1235.78,4460.27)">
                    <path d="M493.083,884.261C537.594,905.894 582.291,924.575 627.21,939.677C639.517,940.813 644.941,932.335 639.571,924.735C593.371,897.388 546.084,884.233 496.451,866.107L487.813,881.353L493.083,884.261Z" style="fill:rgb(253,170,69);stroke:rgb(35,31,32);stroke-width:5px;"/>
                </g>
                <g transform="matrix(0.585527,0,0,0.721476,-1227.26,4412.78)">
                    <path d="M501.35,884.414C545.861,906.048 580.913,923.504 625.833,938.605C638.139,939.741 641.727,930.345 636.356,922.745C590.156,895.397 554.963,881.171 505.33,863.046L496.08,881.506L501.35,884.414Z" style="fill:rgb(210,207,255);stroke:rgb(35,31,32);stroke-width:5px;"/>
                </g>
                <g transform="matrix(0.585527,0,0,0.721476,-1235.78,4460.27)">
                    <path d="M682.237,718.29C679.558,716.567 600.109,672.349 600.109,672.349C588.536,663.144 596.633,648.745 607.432,650.644L699.79,700.334L682.237,718.29Z" style="fill:rgb(253,170,69);stroke:rgb(35,31,32);stroke-width:5px;"/>
                </g>
                <g transform="matrix(0.585527,0,0,0.721476,-1235.78,4460.27)">
                    <path d="M715.521,650.473C715.521,650.473 643.69,617.452 641.64,612.308C641.64,612.308 634.567,607.164 637.752,602.388C640.936,597.612 654.842,600.15 659.184,600.796C663.333,601.413 720.843,627.367 723.604,632.271C726.666,635.823 715.521,650.473 715.521,650.473Z" style="fill:rgb(210,207,255);stroke:rgb(35,31,32);stroke-width:5px;"/>
                </g>
                <g transform="matrix(-0.585492,-0.00787401,0.00639029,-0.721433,-379.101,5274.62)">
                    <path d="M714.371,652.837C714.371,652.837 634.788,613.835 632.737,608.692C632.737,608.692 619.161,596.693 624.158,589.828C629.103,583.036 648.251,588.799 648.251,588.799C654.168,588.427 721.902,628.958 721.902,628.958L714.371,652.837Z" style="fill:rgb(253,170,69);stroke:rgb(35,31,32);stroke-width:5px;"/>
                </g>
                <g transform="matrix(-0.585492,-0.00787401,0.00639029,-0.721433,-364.044,5223.92)">
                    <path d="M724.6,672.76C724.6,672.76 614.752,601.615 612.701,596.471C612.701,596.471 598.528,582.374 603.525,575.509C608.47,568.716 627.243,575.25 627.243,575.25C633.16,574.878 735.812,643.159 735.812,643.159L724.6,672.76Z" style="fill:rgb(210,207,255);stroke:rgb(35,31,32);stroke-width:5px;"/>
                </g>
                <g transform="matrix(0.585527,0,0,0.721476,-1235.78,4460.27)">
                    <path d="M610.53,987.413C610.53,987.413 625.985,990.751 636.72,978.613C647.906,965.964 686.252,928.313 675.677,851.421C672.496,833.037 665.814,810.082 655.5,796.499C634.571,766.74 618.064,741.776 610.53,721.662C604.745,705.718 603.789,691.003 605.136,676.979C608.581,654.441 613.641,639.11 623.515,628.146C639.019,611.852 657.923,600.824 678.57,593.103C678.57,593.103 737.117,573.495 750.097,571.778L761.394,584.906C761.394,584.906 794.929,575.016 800.266,570.62C800.266,570.62 822.777,567.076 879.791,528.397C930.501,493.995 944.528,438.337 945.798,434.378C949.863,421.697 934.583,410.84 927.414,413.146C914.733,418.038 902.521,437.932 889.764,457.302C889.764,457.302 843.907,511.543 806.333,531.887C765.722,553.876 738.316,535.537 613.368,584.906C557.032,607.165 548.446,700.449 578.97,739.578C588.198,751.407 598.135,776.405 605.136,788.146C637.426,842.294 645.578,892.133 619.898,939.011C601.287,958.531 589.656,978.571 610.53,987.413Z" style="fill:rgb(237,113,92);stroke:rgb(35,31,32);stroke-width:5.75px;"/>
                </g>
                <g transform="matrix(-0.241227,-0.312281,-0.42412,0.497417,-377.514,4795.76)">
                    <path d="M628.339,1024.96C628.339,1024.96 649.065,1030.92 659.8,1018.78C670.986,1006.13 715.654,962.983 705.079,886.091C701.898,867.707 658.832,814.581 648.519,800.998C627.59,771.239 616.598,759.359 612.119,725.62C621.243,683.23 661.103,648.189 673.389,634.961C704.061,613.036 761.237,588.71 761.237,588.71C761.237,588.71 834.47,563.275 894.5,527.64C967.951,484.037 975.723,413.973 976.993,410.014C981.059,397.333 978.377,383.59 946.846,384.839C919.422,385.925 925.662,420.596 899.98,451.281C899.98,451.281 863.277,492.803 825.703,513.147C785.092,535.136 778.527,539.776 641.41,600.884C568.042,633.581 519.836,741.902 550.36,781.031C559.587,792.86 616.313,844.631 623.315,856.371C655.605,910.52 659.247,927.082 633.567,973.961C614.956,993.481 607.465,1016.12 628.339,1024.96Z" style="fill:rgb(19,127,192);stroke:rgb(35,31,32);stroke-width:12.19px;"/>
                </g>
                <g>
                    <g transform="matrix(0.585527,0,0,0.721476,-1235.78,4460.27)">
                        <path d="M588.699,630.749C593.478,632.264 597.286,632.959 599.922,631.473" style="fill:none;stroke:rgb(35,31,32);stroke-width:3.53px;"/>
                    </g>
                    <g transform="matrix(0.585527,0,0,0.721476,-1235.78,4460.27)">
                        <path d="M595.113,618.758C598.83,619.902 602.807,620.139 607.227,618.824" style="fill:none;stroke:rgb(35,31,32);stroke-width:3.53px;"/>
                    </g>
                    <g transform="matrix(0.585527,0,0,0.721476,-1235.78,4460.27)">
                        <path d="M597.417,608.948C601.301,609.856 605.099,609.576 608.808,608.026" style="fill:none;stroke:rgb(35,31,32);stroke-width:3.53px;"/>
                    </g>
                    <g transform="matrix(0.585527,0,0,0.721476,-1235.78,4460.27)">
                        <path d="M732.32,411.743C735.449,412.412 738.578,412.317 741.708,410.585" style="fill:none;stroke:rgb(35,31,32);stroke-width:3.53px;"/>
                    </g>
                    <g transform="matrix(0.585527,0,0,0.721476,-1235.78,4460.27)">
                        <path d="M738.107,395.797C741.536,396.397 745.308,395.797 749.423,393.996" style="fill:none;stroke:rgb(35,31,32);stroke-width:3.53px;"/>
                    </g>
                    <g transform="matrix(0.585527,0,0,0.721476,-1235.78,4460.27)">
                        <path d="M745.823,381.523C748.309,382.091 750.795,382.069 753.281,381.266" style="fill:none;stroke:rgb(35,31,32);stroke-width:3.53px;"/>
                    </g>
                    <g transform="matrix(0.585527,0,0,0.721476,-1235.78,4460.27)">
                        <path d="M874.076,494.309L879.94,504.083" style="fill:none;stroke:rgb(35,31,32);stroke-width:3.53px;"/>
                    </g>
                    <g transform="matrix(0.585527,0,0,0.721476,-1235.78,4460.27)">
                        <path d="M863.994,502.437L868.006,508.301" style="fill:none;stroke:rgb(35,31,32);stroke-width:3.53px;"/>
                    </g>
                    <g transform="matrix(0.585527,0,0,0.721476,-1235.78,4460.27)">
                        <path d="M673.093,724.008L679.523,740.886" style="fill:none;stroke:rgb(35,31,32);stroke-width:3.53px;"/>
                    </g>
                    <g transform="matrix(0.585527,0,0,0.721476,-1235.78,4460.27)">
                        <path d="M660.876,732.447L665.699,740.886" style="fill:none;stroke:rgb(35,31,32);stroke-width:3.53px;"/>
                    </g>
                    <g transform="matrix(0.585527,0,0,0.721476,-1235.78,4460.27)">
                        <path d="M652.518,740.886L654.607,746.03" style="fill:none;stroke:rgb(35,31,32);stroke-width:3.53px;"/>
                    </g>
                    <g transform="matrix(0.585527,0,0,0.721476,-1235.78,4460.27)">
                        <path d="M521.543,795.505L527.458,802.835" style="fill:none;stroke:rgb(35,31,32);stroke-width:3.53px;"/>
                    </g>
                    <g transform="matrix(0.585527,0,0,0.721476,-1235.78,4460.27)">
                        <path d="M512.927,802.835L519.871,810.165" style="fill:none;stroke:rgb(35,31,32);stroke-width:3.53px;"/>
                    </g>
                    <g transform="matrix(0.585527,0,0,0.721476,-1235.78,4460.27)">
                        <path d="M506.497,811.322L511.255,815.695" style="fill:none;stroke:rgb(35,31,32);stroke-width:3.53px;"/>
                    </g>
                </g>
            </g>
        </g>
    </g>
</svg>
