<?xml version="1.0" encoding="UTF-8" standalone="no"?>
<!DOCTYPE svg PUBLIC "-//W3C//DTD SVG 1.1//EN" "http://www.w3.org/Graphics/SVG/1.1/DTD/svg11.dtd">
<svg width="100%" height="100%" viewBox="0 0 90 94" version="1.1" xmlns="http://www.w3.org/2000/svg" xmlns:xlink="http://www.w3.org/1999/xlink" xml:space="preserve" xmlns:serif="http://www.serif.com/" style="fill-rule:evenodd;clip-rule:evenodd;stroke-linecap:round;stroke-linejoin:round;stroke-miterlimit:1.5;">
    <g transform="matrix(1,0,0,1,-3871.69,-1746.38)">
        <g id="Images" transform="matrix(0.278985,0,0,0.14907,2818.47,1514.69)">
            <rect x="3775.17" y="1554.26" width="320.612" height="627.837" style="fill:none;"/>
            <g transform="matrix(-4.10376,0,0,153.604,13209.9,-12336)">
                <g>
                    <g transform="matrix(0.639714,0,0,0.0319857,852.162,41.0265)">
                        <path d="M2190.74,1621.84C2216.11,1645.48 2257.01,1629.01 2260.55,1596.57L2249.57,1611.47L2215.74,1628.43L2199.35,1623.09L2192.67,1620.47L2190.74,1621.84Z" style="fill:rgb(196,154,109);"/>
                    </g>
                    <g transform="matrix(0.761664,0,0,0.0380832,575.043,30.6689)">
                        <circle cx="2226.92" cy="1605.86" r="35.888" style="fill:none;stroke:rgb(30,34,37);stroke-width:1.15px;"/>
                        <circle cx="2226.92" cy="1605.86" r="35.888" style="fill:rgb(154,77,43);"/>
                    </g>
                    <g transform="matrix(0.648774,0,0,0.0324387,826.441,39.7332)">
                        <circle cx="2226.92" cy="1605.86" r="35.888" style="fill:rgb(209,254,249);"/>
                    </g>
                    <g transform="matrix(0.836222,0,0,0.0388015,411.869,30.1013)">
                        <path d="M2223.52,1564.17C2238.22,1564.17 2251.96,1574.77 2250.94,1590.19C2249.37,1604.63 2238.31,1619.39 2223.7,1617.65C2208.73,1617.83 2195.77,1603.97 2196.97,1592.13C2197.11,1577.44 2208.83,1564.73 2223.52,1564.17Z" style="fill:rgb(179,254,247);"/>
                        <clipPath id="_clip1">
                            <path d="M2223.52,1564.17C2238.22,1564.17 2251.96,1574.77 2250.94,1590.19C2249.37,1604.63 2238.31,1619.39 2223.7,1617.65C2208.73,1617.83 2195.77,1603.97 2196.97,1592.13C2197.11,1577.44 2208.83,1564.73 2223.52,1564.17Z"/>
                        </clipPath>
                        <g clip-path="url(#_clip1)">
                            <g transform="matrix(0.765005,0,0,0.824343,526.526,281.566)">
                                <path d="M2183.41,1596.22C2206.73,1635.64 2257.6,1615.87 2252.99,1576.13C2263.16,1620.65 2199.4,1639.84 2183.41,1596.22Z" style="fill:rgb(157,247,246);"/>
                            </g>
                        </g>
                    </g>
                    <g transform="matrix(0.623437,-0.0327058,0.572805,0.027297,-39.98,119.527)">
                        <path d="M2168.69,1626.41C2171.22,1626.41 2173.28,1628.75 2173.28,1631.65C2173.28,1632.02 2173.28,1632.4 2173.28,1632.78C2173.28,1635.67 2171.22,1638.02 2168.69,1638.02C2160.46,1638.02 2143.33,1638.02 2135.62,1638.02C2134.59,1638.02 2133.59,1637.55 2132.86,1636.71C2132.13,1635.87 2131.71,1634.74 2131.71,1633.55C2131.71,1632.67 2131.71,1631.75 2131.71,1630.87C2131.71,1629.69 2132.13,1628.55 2132.86,1627.71C2133.59,1626.88 2134.59,1626.41 2135.62,1626.41C2143.33,1626.41 2160.46,1626.41 2168.69,1626.41Z" style="fill:none;stroke:rgb(30,34,37);stroke-width:2.53px;"/>
                        <path d="M2168.69,1626.41C2171.22,1626.41 2173.28,1628.75 2173.28,1631.65C2173.28,1632.02 2173.28,1632.4 2173.28,1632.78C2173.28,1635.67 2171.22,1638.02 2168.69,1638.02C2160.46,1638.02 2143.33,1638.02 2135.62,1638.02C2134.59,1638.02 2133.59,1637.55 2132.86,1636.71C2132.13,1635.87 2131.71,1634.74 2131.71,1633.55C2131.71,1632.67 2131.71,1631.75 2131.71,1630.87C2131.71,1629.69 2132.13,1628.55 2132.86,1627.71C2133.59,1626.88 2134.59,1626.41 2135.62,1626.41C2143.33,1626.41 2160.46,1626.41 2168.69,1626.41Z" style="fill:rgb(252,176,64);"/>
                    </g>
                    <g transform="matrix(0.429021,-0.0222052,0.460092,0.0222233,541.422,104.878)">
                        <rect x="2145" y="1658.16" width="6.559" height="1.115" style="fill:rgb(246,250,251);"/>
                    </g>
                    <g transform="matrix(0.552266,-0.0285264,0.459643,0.0222465,294.903,117.48)">
                        <rect x="2145" y="1658.16" width="6.559" height="1.115" style="fill:rgb(246,250,251);"/>
                    </g>
                    <g transform="matrix(0.108037,-0.00606411,0.514283,0.0229059,1155.33,68.3062)">
                        <rect x="2145" y="1658.16" width="6.559" height="1.115" style="fill:rgb(246,250,251);"/>
                    </g>
                    <g transform="matrix(0.961835,-0.0501035,1.35126,0.0648503,-2042.2,97.3636)">
                        <rect x="2185.6" y="1620.06" width="2.514" height="1.429" style="fill:none;stroke:rgb(42,42,42);stroke-width:0.53px;"/>
                        <rect x="2185.6" y="1620.06" width="2.514" height="1.429" style="fill:rgb(192,190,191);"/>
                    </g>
                    <g transform="matrix(0.108037,-0.00606411,0.514283,0.0229059,1153.6,68.3997)">
                        <rect x="2145" y="1658.16" width="6.559" height="1.115" style="fill:rgb(246,250,251);"/>
                    </g>
                    <g transform="matrix(0.639714,0,0,0.0319857,852.162,41.0265)">
                        <path d="M2187.89,1589C2188.02,1585.87 2188.74,1582.83 2190.17,1579.9" style="fill:none;stroke:white;stroke-width:1.37px;"/>
                    </g>
                    <g transform="matrix(0.639714,0,0,0.0319857,852.162,41.0265)">
                        <path d="M2190.74,1578.22C2191,1577.61 2191.33,1576.63 2192.19,1575.22" style="fill:none;stroke:white;stroke-width:1.37px;"/>
                    </g>
                    <g transform="matrix(0.639714,0,0,0.0319857,852.162,41.0265)">
                        <path d="M2193.11,1573.69C2193.44,1573.17 2193.83,1572.65 2194.29,1572.13" style="fill:none;stroke:white;stroke-width:1.37px;"/>
                    </g>
                </g>
            </g>
        </g>
    </g>
</svg>
