<?xml version="1.0" encoding="UTF-8" standalone="no"?>
<!DOCTYPE svg PUBLIC "-//W3C//DTD SVG 1.1//EN" "http://www.w3.org/Graphics/SVG/1.1/DTD/svg11.dtd">
<svg width="100%" height="100%" viewBox="0 0 510 497" version="1.1" xmlns="http://www.w3.org/2000/svg" xmlns:xlink="http://www.w3.org/1999/xlink" xml:space="preserve" xmlns:serif="http://www.serif.com/" style="fill-rule:evenodd;clip-rule:evenodd;stroke-linecap:round;stroke-linejoin:round;stroke-miterlimit:1.5;">
    <g transform="matrix(1,0,0,1,0,-4685.66)">
        <g id="Artboard2" transform="matrix(0.611735,0,0,0.576265,755.968,2115.37)">
            <rect x="-1235.78" y="4460.27" width="833.656" height="861.291" style="fill:none;"/>
            <g transform="matrix(1.68167,0,0,1.78518,-1588.82,-4119.99)">
                <path d="M457.872,4806.49C594.545,4806.49 705.506,4917.45 705.506,5054.12C705.506,5159.18 639.94,5249.05 547.53,5285L368.214,5285C275.804,5249.05 210.237,5159.18 210.237,5054.12C210.237,4917.45 321.199,4806.49 457.872,4806.49Z" style="fill:rgb(254,195,103);"/>
            </g>
            <g transform="matrix(1.6347,0,0,1.73531,-1500.21,-3670.82)">
                <path d="M355.386,5175.18L355.386,5114.66C355.386,5111.89 357.633,5109.64 360.405,5109.64L361.752,5109.64C361.536,5099.63 364.45,5090.74 367.471,5090.65L367.471,5074.15C367.471,5074.15 361.673,5072.56 353.931,5070.42C330.912,5064.08 314.964,5043.15 314.964,5019.27C314.964,4964.56 314.964,4873.68 314.964,4873.68L313.121,4873.68L313.121,4875.18L311.275,4875.18C304.013,4875.18 298.127,4869.3 298.127,4862.03C298.127,4856.66 298.127,4850.46 298.127,4845.11C298.127,4841.68 299.489,4838.39 301.913,4835.97C304.337,4833.54 307.624,4832.18 311.053,4832.18L311.054,4832.18C312.091,4832.18 313.085,4832.59 313.819,4833.33C314.552,4834.06 314.964,4835.06 314.964,4836.09C314.964,4837.46 314.964,4838.65 314.964,4838.65L330.209,4838.65C330.209,4838.65 330.208,4807.16 330.207,4777.22C330.206,4763.17 335.789,4749.69 345.727,4739.75C355.664,4729.82 369.143,4724.23 383.197,4724.23C396.683,4724.23 407.441,4724.23 407.441,4724.23L407.445,5175.18L355.386,5175.18Z" style="fill:rgb(230,176,90);"/>
            </g>
            <g transform="matrix(1.60772,0,0,1.72047,-1491.06,-3598.66)">
                <path d="M477.307,4861.93C477.307,4861.93 477.816,4951.54 478.175,5014.7C478.365,5048.06 451.352,5075.3 417.723,5075.67C412.286,5075.69 406.862,5075.73 401.47,5075.8C385.074,5076.09 369.246,5069.83 357.546,5058.43C345.847,5047.04 339.256,5031.45 339.256,5015.18C339.242,4951.47 339.242,4861.93 339.242,4861.93L477.307,4861.93Z" style="fill:rgb(58,16,6);"/>
            </g>
            <g transform="matrix(2.01384,0,0,3.41507,-1654.82,-11944.4)">
                <path d="M453.82,4893.82L453.82,4970.22C455.647,4986.81 434.098,4998.98 407.261,4999.36C382.35,4999.72 360.118,4987.28 360.701,4970.22L360.701,4893.82L453.82,4893.82Z" style="fill:none;stroke:rgb(62,19,2);stroke-width:4.93px;"/>
                <path d="M453.82,4893.82L453.82,4970.22C455.647,4986.81 434.098,4998.98 407.261,4999.36C382.35,4999.72 360.118,4987.28 360.701,4970.22L360.701,4893.82L453.82,4893.82Z" style="fill:rgb(255,201,119);"/>
                <clipPath id="_clip1">
                    <path d="M453.82,4893.82L453.82,4970.22C455.647,4986.81 434.098,4998.98 407.261,4999.36C382.35,4999.72 360.118,4987.28 360.701,4970.22L360.701,4893.82L453.82,4893.82Z"/>
                </clipPath>
                <g clip-path="url(#_clip1)">
                    <g transform="matrix(0.811732,0,0,0.508133,76.7705,2422.66)">
                        <path d="M410.566,5071.48C426.94,5066.65 439.761,5054.42 448.54,5036.42L443.983,4854.06L348.456,4854.06L348.407,5081.61L410.566,5071.48Z" style="fill:rgb(226,175,83);"/>
                    </g>
                </g>
            </g>
            <g transform="matrix(1.61966,0,0,1.71442,-1493.04,-3569.1)">
                <rect x="325.108" y="4837.51" width="152.198" height="30.274" style="fill:rgb(50,19,24);"/>
            </g>
            <g transform="matrix(1.5495,0,0,1.7581,-1465.26,-3785.32)">
                <path d="M407.292,4726.93C438.379,4726.93 463.58,4750.5 463.58,4779.59L463.58,5006.58C463.58,5035.67 438.379,5059.25 407.292,5059.25L407.292,5059.25C376.205,5059.25 351.004,5035.67 351.004,5006.58C351.004,4944.44 351.004,4841.73 351.004,4779.59C351.004,4750.5 376.205,4726.93 407.292,4726.93L407.292,4726.93Z" style="fill:rgb(65,22,5);"/>
            </g>
            <g transform="matrix(1.69689,0,0,1.75958,-1524.86,-3796.5)">
                <path d="M422.565,5090.35C424.411,5090.87 425.879,5092.4 426.299,5094.4L429.558,5109.83L431.769,5109.83C433.256,5109.83 434.464,5111.07 434.464,5112.59L434.464,5175.49C434.464,5177.01 433.256,5178.25 431.769,5178.25L383.258,5178.25C381.77,5178.25 380.563,5177.01 380.563,5175.49L380.563,5112.59C380.563,5111.07 381.77,5109.83 383.258,5109.83L385.415,5109.83L388.881,5094.33C389.275,5092.57 390.486,5091.18 392.047,5090.54L392.047,5074.18L422.565,5074.18L422.565,5090.35Z" style="fill:rgb(55,20,17);"/>
            </g>
            <g transform="matrix(1.6347,0,0,1.73531,-1500.21,-3670.82)">
                <path d="M343.963,4867.81L345.893,4867.81C345.893,5019.86 345.882,5019.86 345.939,5021.28C346.355,5031.68 349.577,5038.62 355.634,5049.29C356.091,5050.09 353.174,5046.22 352.968,5045.94C346.942,5037.94 343.965,5030.44 343.963,5018.91L343.963,4867.81Z" style="fill:rgb(195,143,93);"/>
            </g>
            <g transform="matrix(-1.6347,0,0,1.73531,-168.07,-3670.82)">
                <path d="M345.893,4867.81L343.963,4867.81C343.963,5019.86 343.954,5019.85 343.999,5021.06C344.501,5034.47 349.205,5041.28 355.589,5049.32C355.953,5049.78 355.352,5049.02 352.127,5042.87C346.732,5032.59 345.894,5025.48 345.893,5018.91L345.893,4867.81Z" style="fill:rgb(227,165,90);"/>
            </g>
            <g transform="matrix(1.67715,0,0,1.71575,-1515.24,-3576.05)">
                <rect x="339.257" y="4844.67" width="14.834" height="16.955" style="fill:rgb(197,186,182);"/>
                <clipPath id="_clip2">
                    <rect x="339.257" y="4844.67" width="14.834" height="16.955"/>
                </clipPath>
                <g clip-path="url(#_clip2)">
                    <g transform="matrix(0.942328,0,0,1.04414,20.421,-213.84)">
                        <path d="M347.746,4844.16L347.746,4850.23C347.53,4856.82 346.956,4857.89 342.334,4860.91L354.091,4860.91L354.091,4844.16L347.746,4844.16Z" style="fill:rgb(104,106,105);"/>
                    </g>
                </g>
            </g>
            <g transform="matrix(1.67715,0,0,1.71575,-1315.93,-3576.05)">
                <rect x="339.257" y="4844.67" width="14.834" height="16.955" style="fill:rgb(197,186,182);"/>
                <clipPath id="_clip3">
                    <rect x="339.257" y="4844.67" width="14.834" height="16.955"/>
                </clipPath>
                <g clip-path="url(#_clip3)">
                    <g transform="matrix(0.942328,0,0,1.04414,20.421,-213.84)">
                        <path d="M349.929,4844.16L349.929,4850.23C349.713,4856.82 347.603,4857.84 343.165,4860.91L354.091,4860.91L354.091,4844.16L349.929,4844.16Z" style="fill:rgb(104,106,105);"/>
                    </g>
                </g>
            </g>
            <g transform="matrix(1.68018,0,0,1.76893,-1519.03,-3844.8)">
                <rect x="386.794" y="5115.91" width="42.587" height="59.275" style="fill:rgb(229,41,40);"/>
                <clipPath id="_clip4">
                    <rect x="386.794" y="5115.91" width="42.587" height="59.275"/>
                </clipPath>
                <g clip-path="url(#_clip4)">
                    <g transform="matrix(0.972926,0,0,0.980995,11.1993,98.3532)">
                        <path d="M429.819,5114.76L429.819,5175.18L420.103,5175.18L420.103,5126.75C420.312,5120.08 415.713,5116.21 408.567,5114.76L429.819,5114.76Z" style="fill:rgb(240,76,74);"/>
                    </g>
                    <g transform="matrix(-0.972926,0,0,0.980995,804.546,98.3532)">
                        <path d="M429.819,5114.76L429.819,5175.18L420.103,5175.18L420.103,5126.75C420.498,5119.91 415.964,5115.94 408.567,5114.76L429.819,5114.76Z" style="fill:rgb(186,37,41);"/>
                    </g>
                </g>
            </g>
            <g transform="matrix(1.6347,0,0,1.78014,-1500.21,-3893.63)">
                <rect x="360.701" y="4900.68" width="93.119" height="33.079" style="fill:rgb(229,41,40);"/>
                <clipPath id="_clip5">
                    <rect x="360.701" y="4900.68" width="93.119" height="33.079"/>
                </clipPath>
                <g clip-path="url(#_clip5)">
                    <g transform="matrix(1,0,0,0.974821,0,125.164)">
                        <path d="M437.088,4898.83L437.088,4912.79C436.098,4926.67 425.832,4931.92 411.895,4933.76L454.723,4933.76L454.723,4898.83L437.088,4898.83Z" style="fill:rgb(227,88,83);"/>
                    </g>
                    <g transform="matrix(-1,0,0,0.974821,815.354,125.164)">
                        <path d="M437.635,4898.83L437.635,4912.79C436.645,4926.67 425.832,4931.92 411.895,4933.76L454.723,4933.76L454.723,4898.83L437.635,4898.83Z" style="fill:rgb(133,35,36);"/>
                    </g>
                </g>
            </g>
            <g transform="matrix(1.65438,0,0,2.56334,-1507.31,-7884.7)">
                <rect x="360.701" y="4939.25" width="92.334" height="16.955" style="fill:rgb(255,176,55);"/>
                <clipPath id="_clip6">
                    <rect x="360.701" y="4939.25" width="92.334" height="16.955"/>
                </clipPath>
                <g clip-path="url(#_clip6)">
                    <g transform="matrix(0.988102,0,0,0.957768,4.29145,208.8)">
                        <path d="M437.69,4939.04L437.69,4946.24C437.552,4954.86 427.166,4957.04 416.828,4956.74L454.147,4956.74L454.147,4939.04L437.69,4939.04Z" style="fill:rgb(255,235,86);"/>
                    </g>
                    <g transform="matrix(-0.988102,0,0,0.957768,809.445,208.775)">
                        <path d="M438.544,4939.04L438.544,4946.24C438.407,4954.86 427.166,4957.04 416.828,4956.74L454.147,4956.74L454.147,4939.04L438.544,4939.04Z" style="fill:rgb(202,148,42);"/>
                    </g>
                </g>
            </g>
            <g transform="matrix(1.65438,0,0,1.89086,-1507.31,-4439.39)">
                <rect x="360.701" y="4939.25" width="92.334" height="16.955" style="fill:rgb(255,176,55);"/>
                <clipPath id="_clip7">
                    <rect x="360.701" y="4939.25" width="92.334" height="16.955"/>
                </clipPath>
                <g clip-path="url(#_clip7)">
                    <g transform="matrix(0.988102,0,0,0.957768,4.29145,208.8)">
                        <path d="M437.69,4939.04L437.69,4946.24C437.552,4954.86 427.166,4957.04 416.828,4956.74L454.147,4956.74L454.147,4939.04L437.69,4939.04Z" style="fill:rgb(255,235,86);"/>
                    </g>
                    <g transform="matrix(-0.988102,0,0,0.957768,809.445,208.775)">
                        <path d="M438.544,4939.04L438.544,4946.24C438.407,4954.86 427.166,4957.04 416.828,4956.74L454.147,4956.74L454.147,4939.04L438.544,4939.04Z" style="fill:rgb(202,148,42);"/>
                    </g>
                </g>
            </g>
            <g transform="matrix(1.6347,0,0,1.73531,519.909,-3671.29)">
                <g transform="matrix(1.02105,0,0,1.05977,-1243.21,-292.735)">
                    <path d="M393.374,4904.23L393.374,4907.06C393.374,4907.84 392.716,4908.47 391.905,4908.47L358.317,4908.47C357.506,4908.47 356.848,4907.84 356.848,4907.06L356.848,4904.23C356.848,4903.44 357.506,4902.81 358.317,4902.81L391.905,4902.81C392.716,4902.81 393.374,4903.44 393.374,4904.23Z" style="fill:rgb(54,17,25);"/>
                </g>
                <g transform="matrix(1.02105,0,0,1.05977,-1179.12,-292.735)">
                    <path d="M393.374,4904.23L393.374,4907.06C393.374,4907.84 392.716,4908.47 391.905,4908.47L357.899,4908.47C357.088,4908.47 356.43,4907.84 356.43,4907.06L356.43,4904.23C356.43,4903.44 357.088,4902.81 357.899,4902.81L391.905,4902.81C392.716,4902.81 393.374,4903.44 393.374,4904.23Z" style="fill:rgb(54,17,25);"/>
                </g>
                <g transform="matrix(1.02105,0,0,1.10808,-1243.21,-519.622)">
                    <path d="M393.374,4904.23L393.374,4907.06C393.374,4907.84 392.686,4908.47 391.839,4908.47L358.384,4908.47C357.536,4908.47 356.848,4907.84 356.848,4907.06L356.848,4904.23C356.848,4903.44 357.536,4902.81 358.384,4902.81L391.839,4902.81C392.686,4902.81 393.374,4903.44 393.374,4904.23Z" style="fill:rgb(54,17,25);"/>
                </g>
                <g transform="matrix(1.02105,0,0,1.10808,-1179.12,-519.622)">
                    <path d="M393.374,4904.23L393.374,4907.06C393.374,4907.84 392.686,4908.47 391.839,4908.47L357.965,4908.47C357.118,4908.47 356.43,4907.84 356.43,4907.06L356.43,4904.23C356.43,4903.44 357.118,4902.81 357.965,4902.81L391.839,4902.81C392.686,4902.81 393.374,4903.44 393.374,4904.23Z" style="fill:rgb(54,17,25);"/>
                </g>
                <g transform="matrix(1.02105,0,0,1.07185,-1243.21,-331.484)">
                    <path d="M393.374,4904.23L393.374,4907.06C393.374,4907.84 392.709,4908.47 391.889,4908.47L358.334,4908.47C357.514,4908.47 356.848,4907.84 356.848,4907.06L356.848,4904.23C356.848,4903.44 357.514,4902.81 358.334,4902.81L391.889,4902.81C392.709,4902.81 393.374,4903.44 393.374,4904.23Z" style="fill:rgb(54,17,25);"/>
                </g>
                <g transform="matrix(1.02105,0,0,1.07185,-1179.12,-331.484)">
                    <path d="M393.374,4904.23L393.374,4907.06C393.374,4907.84 392.709,4908.47 391.889,4908.47L357.915,4908.47C357.095,4908.47 356.43,4907.84 356.43,4907.06L356.43,4904.23C356.43,4903.44 357.095,4902.81 357.915,4902.81L391.889,4902.81C392.709,4902.81 393.374,4903.44 393.374,4904.23Z" style="fill:rgb(54,17,25);"/>
                </g>
            </g>
            <g transform="matrix(1.6347,0,0,1.73531,-1500.21,-3670.82)">
                <path d="M360.701,4861.93L454.147,4861.93L454.147,4775.94C454.147,4763.55 449.225,4751.67 440.462,4742.91C431.7,4734.15 419.816,4729.22 407.425,4729.22C407.424,4729.22 407.424,4729.22 407.423,4729.22C395.032,4729.22 383.148,4734.15 374.386,4742.91C365.624,4751.67 360.701,4763.55 360.701,4775.94C360.701,4814.16 360.701,4861.93 360.701,4861.93Z" style="fill:rgb(196,182,182);"/>
                <clipPath id="_clip8">
                    <path d="M360.701,4861.93L454.147,4861.93L454.147,4775.94C454.147,4763.55 449.225,4751.67 440.462,4742.91C431.7,4734.15 419.816,4729.22 407.425,4729.22C407.424,4729.22 407.424,4729.22 407.423,4729.22C395.032,4729.22 383.148,4734.15 374.386,4742.91C365.624,4751.67 360.701,4763.55 360.701,4775.94C360.701,4814.16 360.701,4861.93 360.701,4861.93Z"/>
                </clipPath>
                <g clip-path="url(#_clip8)">
                    <path d="M406.126,4729.22C385.508,4734.03 377.656,4751.6 377.188,4776.56L377.188,4823.02C381.717,4848.11 401.597,4859.49 434.421,4861L434.421,4866.75L356.449,4866.75L351.004,4729.22L406.126,4729.22Z" style="fill:rgb(104,105,100);"/>
                    <path d="M432.983,4861.93C437.882,4857.79 441.172,4853.16 441.021,4847.49L441.021,4764.37C438.681,4748.3 427.902,4736.82 413.048,4727.55L460.799,4733.18L460.799,4861.93L432.983,4861.93Z" style="fill:rgb(240,245,241);"/>
                    <g id="Malla" transform="matrix(1,0,0,1,1235.78,-0.268836)">
                        <g transform="matrix(1,0,0,1,-1235.78,0.268836)">
                            <path d="M358.375,4846.42L373.172,4863.89" style="fill:none;stroke:rgb(54,12,13);stroke-width:3px;"/>
                        </g>
                        <g transform="matrix(1,0,0,1,-1229.13,-8.13879)">
                            <path d="M354.058,4841.32L379.385,4870.51" style="fill:none;stroke:rgb(54,12,13);stroke-width:3px;"/>
                        </g>
                        <g transform="matrix(1,0,0,1,-1223.65,-17.7848)">
                            <path d="M346.432,4833.1L389.306,4881.29" style="fill:none;stroke:rgb(54,12,13);stroke-width:3px;"/>
                        </g>
                        <g transform="matrix(1,0,0,1,-1216.03,-25.3831)">
                            <path d="M339.247,4823.69L395.062,4887.76" style="fill:none;stroke:rgb(54,12,13);stroke-width:3px;"/>
                        </g>
                        <g transform="matrix(1,0,0,1,-1208.84,-33.1582)">
                            <path d="M332.063,4815.44L401.836,4895.53" style="fill:none;stroke:rgb(54,12,13);stroke-width:3px;"/>
                        </g>
                        <g transform="matrix(1,0,0,1,-1199.5,-39.6278)">
                            <path d="M322.277,4804.82L407.289,4902" style="fill:none;stroke:rgb(54,12,13);stroke-width:3px;"/>
                        </g>
                        <g transform="matrix(1,0,0,1,-1193.67,-49.3468)">
                            <path d="M321.529,4803.78L412.971,4908.28" style="fill:none;stroke:rgb(54,12,13);stroke-width:3px;"/>
                        </g>
                        <g transform="matrix(1,0,0,1,-1188.63,-59.9935)">
                            <path d="M321.529,4803.78L412.971,4908.28" style="fill:none;stroke:rgb(54,12,13);stroke-width:3px;"/>
                        </g>
                        <g transform="matrix(1,0,0,1,-1183.69,-70.9407)">
                            <path d="M321.529,4803.78L412.971,4908.28" style="fill:none;stroke:rgb(54,12,13);stroke-width:3px;"/>
                        </g>
                        <g transform="matrix(1,0,0,1,-1175.95,-78.2833)">
                            <path d="M321.529,4803.78L412.971,4908.28" style="fill:none;stroke:rgb(54,12,13);stroke-width:3px;"/>
                        </g>
                        <g transform="matrix(1,0,0,1,-1170.4,-88.2226)">
                            <path d="M321.529,4803.78L412.971,4908.28" style="fill:none;stroke:rgb(54,12,13);stroke-width:3px;"/>
                        </g>
                        <g transform="matrix(1,0,0,1,-1163.42,-96.2968)">
                            <path d="M321.529,4803.78L412.971,4908.28" style="fill:none;stroke:rgb(54,12,13);stroke-width:3px;"/>
                        </g>
                        <g transform="matrix(1,0,0,1,-1235.78,0.268836)">
                            <path d="M358.556,4865.63L458.919,4750.84" style="fill:none;stroke:rgb(54,12,13);stroke-width:3px;"/>
                        </g>
                        <g transform="matrix(1,0,0,1,-1227.69,7.55804)">
                            <path d="M358.556,4865.63L458.919,4750.84" style="fill:none;stroke:rgb(54,12,13);stroke-width:3px;"/>
                        </g>
                        <g transform="matrix(1,0,0,1,-1206.68,32.9768)">
                            <path d="M358.556,4865.63L458.919,4750.84" style="fill:none;stroke:rgb(54,12,13);stroke-width:3px;"/>
                        </g>
                        <g transform="matrix(1,0,0,1,-1214.6,25.2827)">
                            <path d="M358.556,4865.63L458.919,4750.84" style="fill:none;stroke:rgb(54,12,13);stroke-width:3px;"/>
                        </g>
                        <g transform="matrix(1,0,0,1,-1223.04,18.3406)">
                            <path d="M358.556,4865.63L458.919,4750.84" style="fill:none;stroke:rgb(54,12,13);stroke-width:3px;"/>
                        </g>
                        <g transform="matrix(1,0,0,1,-1194.91,35.9672)">
                            <path d="M358.556,4865.63L458.919,4750.84" style="fill:none;stroke:rgb(54,12,13);stroke-width:3px;"/>
                        </g>
                        <g transform="matrix(1,0,0,1,-1183.88,39.3315)">
                            <path d="M358.556,4865.63L458.919,4750.84" style="fill:none;stroke:rgb(54,12,13);stroke-width:3px;"/>
                        </g>
                        <g transform="matrix(1,0,0,1,-1243.45,-7.95488)">
                            <path d="M358.556,4865.63L461.042,4749.55" style="fill:none;stroke:rgb(54,12,13);stroke-width:3px;"/>
                        </g>
                        <g transform="matrix(1,0,0,1,-1246.14,-21.1128)">
                            <path d="M358.556,4865.63L461.042,4749.55" style="fill:none;stroke:rgb(54,12,13);stroke-width:3px;"/>
                        </g>
                        <g transform="matrix(1,0,0,1,-1250.63,-32.4765)">
                            <path d="M358.556,4865.63L461.042,4749.55" style="fill:none;stroke:rgb(54,12,13);stroke-width:3px;"/>
                        </g>
                        <g transform="matrix(1,0,0,1,-1253.25,-46.2326)">
                            <path d="M358.556,4865.63L461.042,4749.55" style="fill:none;stroke:rgb(54,12,13);stroke-width:3px;"/>
                        </g>
                        <g transform="matrix(1,0,0,1,-1259.53,-55.5029)">
                            <path d="M358.556,4865.63L461.042,4749.55" style="fill:none;stroke:rgb(54,12,13);stroke-width:3px;"/>
                        </g>
                        <g transform="matrix(1,0,0,1,-1268.2,-61.9324)">
                            <path d="M358.556,4865.63L461.042,4749.55" style="fill:none;stroke:rgb(54,12,13);stroke-width:3px;"/>
                        </g>
                    </g>
                </g>
            </g>
            <g transform="matrix(1.6347,0,0,1.73531,-1500.21,-3670.82)">
                <path d="M361.068,4964.1L453.82,4964.1L453.82,5013.88C449.815,5034.7 434.334,5048.49 416.828,5052.14C395.597,5056.57 371.389,5046.1 361.068,5015.2L361.068,4964.1Z" style="fill:rgb(229,41,40);"/>
                <clipPath id="_clip9">
                    <path d="M361.068,4964.1L453.82,4964.1L453.82,5013.88C449.815,5034.7 434.334,5048.49 416.828,5052.14C395.597,5056.57 371.389,5046.1 361.068,5015.2L361.068,4964.1Z"/>
                </clipPath>
                <g clip-path="url(#_clip9)">
                    <path d="M351.004,4964.17L376.999,4964.17L376.999,5016.86C377.48,5032.42 381.713,5043.34 390.232,5048.93L390.232,5053.25L354.662,5040.25L351.004,4964.17Z" style="fill:rgb(184,34,33);"/>
                    <path d="M437.296,4962.74L437.296,5019.39C436.634,5033.72 429.483,5049.34 415.477,5052.25L416.828,5055.75L463.58,5040.68L460.092,4960.06L437.296,4962.74Z" style="fill:rgb(240,77,78);"/>
                </g>
            </g>
            <g transform="matrix(2.35161,0,0,1.9803,-1786.69,-4920.53)">
                <path d="M416.828,5108.12L394.229,5108.12L396.489,5096.5L414.568,5096.5L416.828,5108.12Z" style="fill:rgb(229,41,40);"/>
                <clipPath id="_clip10">
                    <path d="M416.828,5108.12L394.229,5108.12L396.489,5096.5L414.568,5096.5L416.828,5108.12Z"/>
                </clipPath>
                <g clip-path="url(#_clip10)">
                    <g transform="matrix(0.695138,0,0,0.876289,121.82,631.07)">
                        <path d="M414.395,5094.03L417.151,5109.65L427.055,5109.65L422.812,5094.03L414.395,5094.03Z" style="fill:rgb(240,76,74);"/>
                    </g>
                    <g transform="matrix(0.695138,0,0,0.876289,121.82,631.07)">
                        <path d="M399.288,5109.65L401.337,5094.03L393.765,5094.03L388.843,5109.65L399.288,5109.65Z" style="fill:rgb(186,37,41);"/>
                    </g>
                </g>
            </g>
            <g transform="matrix(3.66876e-16,6.36033,-0.935057,6.07799e-17,3816.99,1661.24)">
                <path d="M491.494,4841.53C491.799,4843.84 491.866,4847.07 491.668,4849.81C491.469,4852.56 491.04,4854.31 490.568,4854.31C487.822,4854.31 483.551,4854.31 480.978,4854.31C480.537,4854.31 480.131,4852.78 479.918,4850.31C479.704,4847.84 479.716,4844.82 479.949,4842.43C480.267,4839.17 480.598,4835.77 480.87,4832.97C481.245,4829.13 481.901,4826.8 482.608,4826.8C484.21,4826.8 487.106,4826.8 488.601,4826.8C489.203,4826.8 489.775,4828.5 490.164,4831.45C490.532,4834.24 491.019,4837.93 491.494,4841.53Z" style="fill:rgb(50,19,24);"/>
            </g>
            <g transform="matrix(-2.80585e-16,6.36033,0.995707,7.9018e-17,-5778.8,1662.86)">
                <path d="M491.557,4845.19C491.736,4847.08 491.734,4849.39 491.553,4851.27C491.372,4853.15 491.038,4854.31 490.677,4854.31C488.06,4854.31 483.133,4854.31 480.367,4854.31C479.97,4854.31 479.606,4852.99 479.419,4850.89C479.232,4848.78 479.254,4846.23 479.476,4844.24C479.996,4839.59 480.581,4834.35 480.956,4830.99C481.202,4828.8 481.612,4827.48 482.052,4827.48C483.635,4827.48 487.468,4827.48 489.109,4827.48C489.583,4827.48 490.021,4829.01 490.256,4831.49C490.598,4835.09 491.114,4840.53 491.557,4845.19Z" style="fill:rgb(50,19,24);"/>
            </g>
            <g transform="matrix(1.6347,0,0,1.73531,-1500.21,-3670.82)">
                <path d="M332.944,4838.32C332.944,4838.32 330.18,4840.75 328.753,4842C328.224,4842.47 327.92,4843.14 327.92,4843.84C327.92,4847.22 327.92,4857.35 327.92,4860.49C327.92,4861.1 328.145,4861.68 328.552,4862.13C329.901,4863.63 332.944,4867 332.944,4867L332.944,4838.32Z" style="fill:rgb(120,114,114);"/>
            </g>
            <g transform="matrix(-1.6347,0,0,1.73531,-168.023,-3670.82)">
                <path d="M332.944,4838.32C332.944,4838.32 330.535,4840.77 329.307,4842.02C328.857,4842.48 328.605,4843.1 328.605,4843.74C328.605,4847.04 328.605,4857.53 328.605,4860.59C328.605,4861.14 328.787,4861.67 329.123,4862.1C330.274,4863.57 332.944,4867 332.944,4867L332.944,4838.32Z" style="fill:rgb(255,243,252);"/>
            </g>
            <g transform="matrix(1.65509,0,0,2.56553,-1507.36,-7970.11)">
                <path d="M557.447,5178.19C557.447,5179.26 556.185,5180.12 554.631,5180.12L258.847,5180.12C257.293,5180.12 256.032,5179.26 256.032,5178.19C256.032,5177.13 257.293,5176.27 258.847,5176.27L554.631,5176.27C556.185,5176.27 557.447,5177.13 557.447,5178.19Z" style="fill:rgb(50,19,24);"/>
            </g>
            <g transform="matrix(1.6347,0,0,1.78335,-1500.21,-3915.25)">
                <rect x="398.955" y="5075.12" width="17.873" height="13.81" style="fill:rgb(255,177,46);"/>
                <clipPath id="_clip11">
                    <rect x="398.955" y="5075.12" width="17.873" height="13.81"/>
                </clipPath>
                <g clip-path="url(#_clip11)">
                    <g transform="matrix(0.951724,0,0,0.973067,20.214,137.063)">
                        <rect x="411.501" y="5073.52" width="7.217" height="17.42" style="fill:rgb(255,237,101);"/>
                    </g>
                    <g transform="matrix(1,0,0,0.973067,0,137.063)">
                        <rect x="397.714" y="5073.52" width="6.271" height="17.022" style="fill:rgb(204,142,43);"/>
                    </g>
                </g>
            </g>
        </g>
    </g>
</svg>
